<?xml version="1.0" encoding="utf-8"?>
<!-- Generator: Adobe Illustrator 28.0.0, SVG Export Plug-In . SVG Version: 6.00 Build 0)  -->
<svg version="1.1" id="Layer_1" xmlns="http://www.w3.org/2000/svg" xmlns:xlink="http://www.w3.org/1999/xlink" x="0px" y="0px"
	 viewBox="0 0 256 256" style="enable-background:new 0 0 256 256;" xml:space="preserve">
<style type="text/css">
	.st0{fill:#FCC438;}
</style>
<g transform="translate(1.4065934065934016 1.4065934065934016) scale(2.81 2.81)">
	<path class="st0" d="M45,0C20.1,0,0,20.1,0,45s20.1,45,45,45s45-20.1,45-45S69.9,0,45,0z M63,46.5c-4.3,4.3-10.7,5.1-15.8,2.6
		l-4.5,4.5l-4.8,0.7L37.1,59l-4.8,0.7l-0.7,4.8l-2,2L23,67l0.5-6.6L41,42.9c-2.6-5.1-1.7-11.6,2.6-15.8c5.4-5.4,14.1-5.4,19.4,0
		C68.3,32.4,68.3,41.1,63,46.5z"/>
	<circle class="st0" cx="56.3" cy="33.7" r="3.5"/>
</g>
</svg>
